<mxfile host="app.diagrams.net" modified="2020-09-24T05:38:02.358Z" agent="5.0 (Windows NT 10.0; Win64; x64) AppleWebKit/537.36 (KHTML, like Gecko) Chrome/85.0.4183.102 Safari/537.36" etag="o_ZW82pa1XYl7Ud3Xe7o" version="13.7.5" type="github">
  <diagram id="h58Jj5s2J0POtgTycYsI" name="Diagrama1">
    <mxGraphModel dx="723" dy="402" grid="1" gridSize="10" guides="1" tooltips="1" connect="1" arrows="1" fold="1" page="1" pageScale="1" pageWidth="827" pageHeight="1169" math="0" shadow="0">
      <root>
        <mxCell id="0" />
        <mxCell id="1" parent="0" />
        <mxCell id="7tnjgmOPYtsf6LkZhkIZ-3" value="&lt;font style=&quot;font-size: 15px&quot; face=&quot;Times New Roman&quot;&gt;b = &quot;&quot;&lt;/font&gt;" style="html=1;verticalAlign=bottom;startArrow=oval;startFill=1;endArrow=block;startSize=8;" edge="1" parent="1">
          <mxGeometry width="60" relative="1" as="geometry">
            <mxPoint x="50" y="320" as="sourcePoint" />
            <mxPoint x="130" y="320" as="targetPoint" />
            <Array as="points" />
            <mxPoint as="offset" />
          </mxGeometry>
        </mxCell>
        <mxCell id="7tnjgmOPYtsf6LkZhkIZ-4" value="&lt;font style=&quot;font-size: 19px&quot; face=&quot;Times New Roman&quot;&gt;FUERA&lt;/font&gt;" style="ellipse;whiteSpace=wrap;html=1;aspect=fixed;fontColor=#000000;" vertex="1" parent="1">
          <mxGeometry x="130" y="270" width="100" height="100" as="geometry" />
        </mxCell>
        <mxCell id="7tnjgmOPYtsf6LkZhkIZ-9" value="" style="curved=1;endArrow=classic;html=1;fontColor=#000000;exitX=0.34;exitY=0.019;exitDx=0;exitDy=0;exitPerimeter=0;entryX=0.689;entryY=0.041;entryDx=0;entryDy=0;entryPerimeter=0;" edge="1" parent="1" source="7tnjgmOPYtsf6LkZhkIZ-4" target="7tnjgmOPYtsf6LkZhkIZ-4">
          <mxGeometry width="50" height="50" relative="1" as="geometry">
            <mxPoint x="210" y="230" as="sourcePoint" />
            <mxPoint x="210" y="210" as="targetPoint" />
            <Array as="points">
              <mxPoint x="164" y="250" />
              <mxPoint x="180" y="240" />
              <mxPoint x="199" y="250" />
            </Array>
          </mxGeometry>
        </mxCell>
        <mxCell id="7tnjgmOPYtsf6LkZhkIZ-10" value="&lt;font face=&quot;Times New Roman&quot; style=&quot;font-size: 13px&quot;&gt;if s[k]==&quot; &quot;:&lt;/font&gt;" style="text;html=1;align=center;verticalAlign=middle;resizable=0;points=[];autosize=1;fontColor=#000000;" vertex="1" parent="1">
          <mxGeometry x="140" y="220" width="80" height="20" as="geometry" />
        </mxCell>
      </root>
    </mxGraphModel>
  </diagram>
</mxfile>
